<?xml version="1.0" encoding="UTF-8" standalone="no"?>
<svg width="32px" height="44px" viewBox="0 0 32 44" version="1.1" xmlns="http://www.w3.org/2000/svg" xmlns:xlink="http://www.w3.org/1999/xlink">
    <defs></defs>
    <g id="Page-1" stroke="none" stroke-width="1" fill="none" fill-rule="evenodd">
        <path d="M16.023,3.43 C21.427,3.43 26.387,5.28 30.345,8.358 L31.428,7.274 C27.771,2.83 22.23,-0.008 16.023,-0.008 C9.817,-0.008 4.275,2.83 0.619,7.274 L1.702,8.358 C5.66,5.28 10.62,3.43 16.023,3.43 Z M29.485,24.585 L18.362,21.207 L18.394,8 L14.351,8 L11.699,28.609 L11.754,28.68 L4.835,25.117 L2.552,27.399 L2.552,28.686 L11.681,37.814 L12.854,44 L27.654,44 L30.274,25.858 L29.485,24.585 Z" id="Fill-43" fill="#FFFFFF"></path>
    </g>
</svg>