<?xml version="1.0" encoding="UTF-8" standalone="no"?>
<svg width="96px" height="132px" viewBox="0 0 96 132" version="1.1" xmlns="http://www.w3.org/2000/svg" xmlns:xlink="http://www.w3.org/1999/xlink">
    <!-- Generator: Sketch 46.2 (44496) - http://www.bohemiancoding.com/sketch -->
    <title>Guardian_VR_Logo-roundel</title>
    <desc>Created with Sketch.</desc>
    <defs></defs>
    <g id="Page-1" stroke="none" stroke-width="1" fill="none" fill-rule="evenodd">
        <g id="Guardian_VR_Logo-roundel" fill-rule="nonzero">
            <ellipse id="Oval-11-Copy-2" fill="#BD3780" cx="48" cy="47.5947248" rx="48" ry="47.5947248"></ellipse>
            <ellipse id="Oval-11-Copy-3-Copy" fill="#43C6E1" cx="48" cy="84.1699811" rx="48" ry="47.5947248"></ellipse>
            <path d="M3.76470588,65.8812149 C10.9939914,83.0904471 28.1189326,95.1883115 48.0935418,95.1883115 C68.0681511,95.1883115 85.1930921,83.0904471 92.4223778,65.8812149 C85.1930921,48.6719826 68.0681511,36.5741182 48.0935418,36.5741182 C28.1189326,36.5741182 10.9939914,48.6719826 3.76470588,65.8812149 Z" id="Combined-Shape" fill="#312A70"></path>
            <path d="M53.4853455,50.5128829 C53.508244,42.5730854 51.0557816,41.3607852 48.0331844,41.3527426 C45.0843029,41.3447 42.6260853,42.4020623 42.602942,50.4837874 C42.5795537,58.5661041 45.0327508,59.2815386 47.9816324,59.2893446 C50.9312484,59.2972693 53.4625697,58.4533899 53.4853455,50.5128829 L53.4853455,50.5128829 Z M42.5675535,80.7681104 C38.8124501,80.7580574 37.6932417,83.4344613 37.6874864,85.421569 C37.6792823,88.2920595 40.3498311,90.9481204 48.1529421,90.9690546 C57.0283625,90.9927094 59.4428652,88.5863229 59.4520489,85.445342 C59.459886,82.7056617 57.3304509,80.8076136 53.7431064,80.7980337 L42.5675535,80.7681104 Z M35.5503372,40.0802413 C25.2070883,44.6381352 18.0042353,54.7002265 17.9705611,66.4006384 C17.9477851,74.339726 21.2308372,81.541499 26.5659347,86.7927102 C26.554914,86.6522017 26.5467097,86.5109832 26.5471995,86.3683459 C26.5620161,81.1924749 31.7930296,79.2952544 36.434316,78.3850238 L36.434316,78.3823036 C32.021892,77.4492464 29.896498,74.3960242 29.9055595,71.2784614 C29.9174373,67.0978589 34.7693403,63.5038917 37.1306985,61.9541577 L36.8517537,61.8059614 C32.7360301,59.6022956 30.0240927,55.6966781 30.0391543,50.4500795 C30.0521341,45.9523869 32.0888729,42.4201581 35.5503372,40.0802413 L35.5503372,40.0802413 Z M78.0294389,66.5613716 C78.0637256,54.6092746 70.6082544,44.327195 59.9312024,39.8576512 C63.4999344,42.1180884 65.6599821,45.5729665 65.8135364,49.9942548 C65.8691293,50.3348815 65.9012117,50.6632082 65.9002324,50.9710728 C65.8754969,59.6196815 58.5756621,64.1982733 47.9675501,64.1698877 C45.2409187,64.1624366 43.3988779,64.0163691 41.189972,63.3735544 C40.1559899,64.078226 39.3421761,65.2118745 39.3391148,66.2764513 C39.3349513,67.6960847 40.6582868,68.8355287 42.2791797,68.8397864 L57.0185668,68.8792896 C66.1475847,68.903772 70.6267447,72.5275444 70.6044584,80.3171348 C70.5969888,82.9181986 70.0548952,85.2500728 68.9405849,87.2661577 C74.5259737,82.016484 78.0061728,74.6840196 78.0294389,66.5613716 L78.0294389,66.5613716 Z" id="Fill-14" fill="#FFFFFF"></path>
        </g>
    </g>
</svg>