<svg width="672px" height="106px" viewBox="0 0 672 106" version="1.1" xmlns="http://www.w3.org/2000/svg" xmlns:xlink="http://www.w3.org/1999/xlink">
    <defs>
        <path id="path-1" d="M0,0.016 L671.223,0.016 L671.223,106 L0,106 L0,0.016 Z"></path>
        <path id="path-3" d="M0,0.016 L671.223,0.016 L671.223,106 L0,106 L0,0.016 Z"></path>
    </defs>
    <g id="Start" stroke="none" stroke-width="1" fill="none" fill-rule="evenodd">
        <g id="Artboard-18" transform="translate(-542.000000, -337.000000)">
            <g id="Group" transform="translate(542.000000, 337.000000)">
                <path d="M440.4571,0.5078 C435.0961,0.5078 430.8071,4.7968 430.8071,10.1598 C430.8071,15.4238 435.0961,19.7128 440.4571,19.7128 C445.7231,19.7128 450.1091,15.4238 450.1091,10.1598 C450.1091,4.7968 445.7231,0.5078 440.4571,0.5078" id="Fill-1" fill="#FFFFFF"></path>
                <path d="M510.877,79.2734 L540.707,79.2734 L540.707,74.3024 L534.953,71.5744 L534.953,36.3004 C537.102,34.7594 539.637,34.2344 542.365,34.2344 C547.338,34.2344 549.676,36.2814 549.676,41.9354 L549.676,71.5744 L543.924,74.3024 L543.924,79.2734 L573.756,79.2734 L573.756,74.3024 L567.809,71.5744 L567.809,37.8414 C567.809,27.7984 563.227,23.3144 554.16,23.3144 C546.752,23.3144 539.537,25.9474 534.662,30.4314 L534.662,23.3144 L533.199,23.3144 L510.582,26.9214 L510.582,31.6994 L516.822,34.5254 L516.822,71.5744 L510.877,74.3024 L510.877,79.2734 Z" id="Fill-3" fill="#FFFFFF"></path>
                <path d="M401.1719,25.7519 C398.9319,24.1909 395.4219,23.3089 392.3989,23.3089 C378.9789,23.3089 366.2909,31.0039 366.2909,53.0349 C366.2909,73.9959 379.0679,80.7339 387.6229,80.7339 C394.4469,80.7339 399.1249,77.7129 401.3689,74.7889 L401.9529,74.7889 L401.9529,80.5449 L403.5139,80.5449 L425.0589,78.0059 L425.0589,74.0329 L419.3069,70.8159 L419.3069,1.0879 L417.8439,1.0879 L395.1289,4.6949 L395.1289,9.6679 L401.1719,12.3969 L401.1719,25.7519 Z M401.1719,69.0059 C399.8579,70.0919 398.3459,70.8889 395.6169,70.8889 C388.4019,70.8889 384.9899,65.0409 384.9899,51.5859 C384.9899,36.1839 389.2789,31.0179 395.0309,31.0179 C398.2499,31.0179 399.8579,32.0229 401.1719,33.4689 L401.1719,69.0059 Z" id="Fill-5" fill="#FFFFFF"></path>
                <path d="M325.8653,26.7285 L325.8653,31.6995 L331.9083,34.5255 L331.9083,71.4745 L326.1583,74.2055 L326.1583,79.2735 L357.5473,79.2735 L357.5473,74.2055 L350.0413,71.4745 L350.0413,42.5275 C353.2503,40.0055 357.2583,39.2065 362.1293,39.2065 C363.6893,39.2065 365.6383,39.4005 366.7133,39.6935 L366.7133,23.8025 C366.1273,23.6075 364.9593,23.5095 363.9843,23.5095 C358.0353,23.5095 352.5783,27.4105 349.3613,34.6235 L349.3613,23.1215 L347.8013,23.1215 L325.8653,26.7285 Z" id="Fill-7" fill="#FFFFFF"></path>
                <path d="M300.8008,68.4414 C299.7558,69.9804 297.7788,70.7934 295.8278,70.7934 C292.3188,70.7934 289.0058,68.8414 289.0058,62.7984 C289.0058,58.4864 292.9028,54.5154 297.1738,53.8634 L300.8008,53.1714 L300.8008,68.4414 Z M286.9158,31.0334 C288.2048,30.4594 290.8578,30.4314 291.7348,30.4314 C298.7518,30.4314 300.8008,33.9394 300.8008,40.8634 L300.7848,47.0254 L290.3908,48.9764 C279.7498,50.9414 271.7228,54.1734 271.7228,65.3864 C271.7228,74.4514 278.0878,80.7344 286.7628,80.7344 C293.5858,80.7344 300.0198,77.8124 302.4568,72.9374 L302.9458,72.9374 C303.8218,78.7854 308.8928,80.6384 314.5468,80.6384 C318.9338,80.6384 323.1758,79.2734 324.7828,77.4494 L324.7828,74.3004 L319.0288,71.5744 L319.0288,39.8864 C319.0288,27.6054 310.2578,23.1134 295.6348,23.1134 C286.0798,23.1134 279.8378,25.4984 274.7738,27.9124 L274.7738,41.7404 L283.2548,41.7404 L286.9158,31.0334 Z" id="Fill-9" fill="#FFFFFF"></path>
                <path d="M485.1934,68.4414 C484.1504,69.9804 482.1724,70.7934 480.2224,70.7934 C476.7134,70.7934 473.3984,68.8414 473.3984,62.7984 C473.3984,58.4864 477.2974,54.5154 481.5664,53.8634 L485.1934,53.1714 L485.1934,68.4414 Z M471.3084,31.0334 C472.5974,30.4594 475.2524,30.4314 476.1274,30.4314 C483.1444,30.4314 485.1934,33.9394 485.1934,40.8634 L485.1794,47.0254 L474.7854,48.9764 C464.1424,50.9414 456.1154,54.1734 456.1154,65.3864 C456.1154,74.4514 462.4804,80.7344 471.1564,80.7344 C477.9804,80.7344 484.4144,77.8124 486.8494,72.9374 L487.3404,72.9374 C488.2164,78.7854 493.2874,80.6384 498.9394,80.6384 C503.3264,80.6384 507.5684,79.2734 509.1754,77.4494 L509.1754,74.3004 L503.4224,71.5744 L503.4224,39.8864 C503.4224,27.6054 494.6524,23.1134 480.0274,23.1134 C470.4724,23.1134 464.2304,25.4984 459.1664,27.9124 L459.1664,41.7404 L467.6444,41.7404 L471.3084,31.0334 Z" id="Fill-11" fill="#FFFFFF"></path>
                <path d="M215.7051,63.3828 C215.7051,72.8398 220.3841,80.7348 231.4001,80.7348 C238.7121,80.7348 245.1461,77.5178 248.6561,73.2288 L248.6561,80.6448 L250.1171,80.6448 L272.2491,78.0058 L272.2491,74.0328 L266.1051,70.8168 L266.1051,23.4118 L264.6441,23.4118 L241.9291,27.0198 L241.9291,31.9898 L247.9731,34.8208 L247.9731,67.5628 C245.9501,68.9008 244.5601,69.5198 241.3601,69.5198 C236.7781,69.5198 233.8381,68.1598 233.8381,61.9218 L233.8381,23.4118 L232.2781,23.4118 L209.5641,27.0198 L209.5641,31.9898 L215.7051,34.8208 L215.7051,63.3828 Z" id="Fill-13" fill="#FFFFFF"></path>
                <path d="M180.6407,97.707 C170.6977,97.707 167.1227,93.824 167.2837,89.998 C167.3897,87.367 168.6907,83.963 173.3597,83.666 L188.8577,83.666 C193.3407,83.666 196.1767,86.775 196.1767,89.603 C196.1767,95.258 191.9497,97.707 180.6407,97.707 M180.7337,29.457 C184.7317,29.457 187.4677,32.246 187.4677,42.033 C187.4677,52.074 184.6347,54.123 180.7337,54.123 C176.8357,54.123 174.0987,52.074 174.0987,42.033 C174.0987,31.748 176.8357,29.457 180.7337,29.457 M192.7257,67.283 L173.2277,67.283 C171.0847,67.283 169.3287,65.723 169.3287,63.773 C169.3287,62.312 170.4017,60.75 171.7647,59.777 C174.6907,60.654 177.1287,60.85 180.7337,60.85 C194.7737,60.85 204.4247,54.514 204.4247,42.619 C204.4247,37.256 202.1827,34.234 198.7697,31.113 L208.0127,33.996 L208.0317,23.119 L193.3097,25.852 C189.8987,24.582 185.1227,23.018 180.7337,23.018 C166.6967,23.018 156.9497,30.236 156.9497,42.033 C156.9497,49.248 160.5557,54.609 166.0147,57.633 L166.4497,57.902 C163.3317,60.047 156.8507,64.943 156.8507,70.695 C156.8507,74.984 159.6777,79.176 165.5277,80.443 L165.5277,80.459 C159.3847,81.727 152.4627,84.344 152.4627,91.461 C152.4627,98.771 162.9927,106 180.1497,106 C201.4987,106 210.7617,95.943 210.7617,82.978 C210.7617,72.254 204.8147,67.283 192.7257,67.283" id="Fill-15" fill="#FFFFFF"></path>
                <path d="M126.7979,29.3574 C131.2809,29.3574 133.7189,32.6174 133.7189,46.2244 L118.6089,47.1034 C118.8129,33.2054 121.8269,29.3574 126.7979,29.3574 L126.7979,29.3574 Z M151.3659,53.6344 C151.3659,30.7244 141.2019,23.2114 127.0909,23.2114 C110.8099,23.2114 100.1839,33.8434 100.1839,51.8804 C100.1839,70.4004 109.8349,80.7364 128.5539,80.7364 C138.5939,80.7364 146.5099,75.4494 149.0439,71.9394 L149.3189,67.4764 C145.5139,68.6464 141.6159,69.3304 134.6959,69.3304 C124.7499,69.3304 118.7939,64.2504 118.8049,53.6344 L151.3659,53.6344 Z" id="Fill-17" fill="#FFFFFF"></path>
                <g id="Group-21">
                    <mask id="mask-2" fill="white">
                        <use xlink:href="#path-1"></use>
                    </mask>
                    <g id="Clip-20"></g>
                    <path d="M41.0401,79.2734 L70.8711,79.2734 L70.8711,74.3024 L65.1201,71.5744 L65.1081,36.3824 C67.2851,34.8784 69.7701,34.0724 72.5011,34.0724 C77.4731,34.0724 79.9331,37.2104 79.8391,41.9354 L79.8391,71.5744 L74.0881,74.3024 L74.0881,79.2734 L103.9201,79.2734 L103.9201,74.3024 L97.9731,71.5744 L97.9731,37.8414 C97.9731,27.7984 92.1821,23.3144 84.3251,23.3144 C76.9161,23.3144 69.6831,25.9474 64.8081,30.4314 L64.8271,30.4314 L64.8271,0.0154 L63.3651,0.0154 L40.7481,3.6254 L40.7481,8.4004 L46.9871,11.2264 L46.9871,71.5744 L41.0401,74.3024 L41.0401,79.2734 Z" id="Fill-19" fill="#FFFFFF" mask="url(#mask-2)"></path>
                </g>
                <g id="Group-24">
                    <mask id="mask-4" fill="white">
                        <use xlink:href="#path-3"></use>
                    </mask>
                    <g id="Clip-23"></g>
                    <path d="M8.3829,64.3574 C8.3829,74.3944 13.1499,80.7344 23.9699,80.7344 C29.6249,80.7344 35.6559,79.2734 39.0919,76.7114 L39.0919,69.9944 C37.6629,70.4554 35.1919,70.8884 33.2419,70.8884 C27.9789,70.8884 26.5159,68.1604 26.5159,62.7984 L26.5159,34.0394 L38.4089,34.0394 L38.4089,24.6794 L26.5159,24.6794 L26.5159,11.9104 L8.3829,14.4454 L8.3829,24.6794 L-0.0001,26.2534 L-0.0001,34.0394 L8.3829,34.0394 L8.3829,64.3574 Z" id="Fill-22" fill="#FFFFFF" mask="url(#mask-4)"></path>
                </g>
                <path d="M602.8086,62.3964 L603.1996,62.3964 L612.7166,32.1774 L606.8296,29.4294 L606.8296,24.3284 L628.4176,24.3284 L628.4176,29.4294 L622.5296,32.1774 L605.9476,79.2734 L590.1486,79.2734 L573.9586,32.1774 L568.0766,29.4294 L568.0766,24.3284 L599.9606,24.3284 L599.9606,29.4294 L594.0766,32.1774 L602.8086,62.3964 Z" id="Fill-25" fill="#4BC6DF"></path>
                <path d="M652.1895,22.7578 L653.7595,22.7578 L653.7595,34.3338 L654.3475,34.3338 C657.5855,27.0758 662.4925,23.1508 668.4765,23.1508 C669.4575,23.1508 670.6365,23.2498 671.2225,23.4448 L671.2225,39.4398 C670.1465,39.1448 668.1835,38.9488 666.6155,38.9488 C661.7075,38.9488 657.5855,39.4398 654.4455,40.9098 L654.4455,71.4258 L661.9995,74.1718 L661.9995,79.2738 L630.4085,79.2738 L630.4085,74.1718 L636.1955,71.4258 L636.1955,34.2378 L630.1175,31.3948 L630.1175,26.3888 L652.1895,22.7578 Z" id="Fill-27" fill="#4BC6DF"></path>
                <path d="M449.812,23 L427,26.608 L427,31.579 L433.14,34.405 L433.14,71.354 L427.29,74.084 L427.29,79.153 L457.124,79.153 L457.124,74.084 L451.273,71.354 L451.273,23 L449.812,23 Z" id="Page-1" fill="#FFFFFF"></path>
            </g>
        </g>
    </g>
</svg>